<svg width="262" height="262" viewBox="0 0 262 262" fill="none" xmlns="http://www.w3.org/2000/svg">
<path fill-rule="evenodd" clip-rule="evenodd" d="M181 256C181 252.686 183.686 250 187 250H192C203.3 250 211.414 249.995 217.783 249.475C224.082 248.96 228.144 247.971 231.436 246.294C237.833 243.035 243.035 237.833 246.294 231.436C247.971 228.144 248.96 224.082 249.475 217.783C249.995 211.414 250 203.3 250 192V187C250 183.686 252.686 181 256 181V181C259.314 181 262 183.686 262 187V192V192.269V192.269C262 203.243 262 211.846 261.435 218.761C260.86 225.802 259.669 231.619 256.986 236.884C252.576 245.539 245.539 252.576 236.884 256.986C231.619 259.669 225.802 260.86 218.761 261.435C211.846 262 203.243 262 192.269 262H192.269H192H187C183.686 262 181 259.314 181 256V256ZM6 181C9.31371 181 12 183.686 12 187V192C12 203.3 12.0047 211.414 12.525 217.783C13.0397 224.082 14.0287 228.144 15.7058 231.436C18.9655 237.833 24.1668 243.035 30.5643 246.294C33.8558 247.971 37.9176 248.96 44.2167 249.475C50.5858 249.995 58.6999 250 70 250H75C78.3137 250 81 252.686 81 256V256C81 259.314 78.3137 262 75 262H70H69.7314H69.731C58.7575 262 50.1542 262 43.2395 261.435C36.1984 260.86 30.3815 259.669 25.1164 256.986C16.461 252.576 9.42388 245.539 5.0137 236.884C2.33103 231.619 1.14018 225.802 0.564896 218.761C-6.58035e-05 211.846 -3.67165e-05 203.242 0 192.268V192V187C0 183.686 2.68629 181 6 181V181ZM81 6C81 9.31371 78.3137 12 75 12H70C58.6999 12 50.5858 12.0047 44.2167 12.525C37.9176 13.0397 33.8558 14.0287 30.5643 15.7058C24.1668 18.9655 18.9655 24.1668 15.7058 30.5643C14.0287 33.8558 13.0397 37.9176 12.525 44.2167C12.0047 50.5858 12 58.6999 12 70V75C12 78.3137 9.31371 81 6 81V81C2.68629 81 0 78.3137 0 75V70V69.7315C-3.67165e-05 58.7578 -6.58035e-05 50.1543 0.564896 43.2395C1.14018 36.1984 2.33103 30.3815 5.0137 25.1164C9.42388 16.461 16.461 9.42388 25.1164 5.0137C30.3815 2.33103 36.1984 1.14018 43.2395 0.564896C50.1543 -6.58035e-05 58.7578 -3.67165e-05 69.7315 0H70H75C78.3137 0 81 2.68629 81 6V6ZM181 6C181 9.31371 183.686 12 187 12H192C203.3 12 211.414 12.0047 217.783 12.525C224.082 13.0397 228.144 14.0287 231.436 15.7058C237.833 18.9655 243.035 24.1668 246.294 30.5643C247.971 33.8558 248.96 37.9176 249.475 44.2167C249.995 50.5858 250 58.6999 250 70V75C250 78.3137 252.686 81 256 81V81C259.314 81 262 78.3137 262 75V70V69.7314V69.731C262 58.7575 262 50.1542 261.435 43.2395C260.86 36.1984 259.669 30.3815 256.986 25.1164C252.576 16.461 245.539 9.42388 236.884 5.0137C231.619 2.33103 225.802 1.14018 218.761 0.564896C211.846 -6.58035e-05 203.242 -3.67165e-05 192.268 0H192H187C183.686 0 181 2.68629 181 6V6Z" fill="#000000"/>
</svg>
